%TF.GenerationSoftware,KiCad,Pcbnew,5.1.6-c6e7f7d~87~ubuntu18.04.1*%
%TF.CreationDate,2021-03-30T11:16:12+09:00*%
%TF.ProjectId,M912,4d393132-2e6b-4696-9361-645f70636258,rev?*%
%TF.SameCoordinates,Original*%
%TF.FileFunction,Legend,Bot*%
%TF.FilePolarity,Positive*%
%FSLAX46Y46*%
G04 Gerber Fmt 4.6, Leading zero omitted, Abs format (unit mm)*
G04 Created by KiCad (PCBNEW 5.1.6-c6e7f7d~87~ubuntu18.04.1) date 2021-03-30 11:16:12*
%MOMM*%
%LPD*%
G01*
G04 APERTURE LIST*
%ADD10C,0.200000*%
%ADD11C,0.150000*%
%ADD12C,0.120000*%
G04 APERTURE END LIST*
D10*
X153708714Y-97813000D02*
X153280142Y-97813000D01*
X153794428Y-98070142D02*
X153494428Y-97170142D01*
X153194428Y-98070142D01*
X152894428Y-97470142D02*
X152894428Y-98070142D01*
X152894428Y-97555857D02*
X152851571Y-97513000D01*
X152765857Y-97470142D01*
X152637285Y-97470142D01*
X152551571Y-97513000D01*
X152508714Y-97598714D01*
X152508714Y-98070142D01*
X151951571Y-98070142D02*
X152037285Y-98027285D01*
X152080142Y-97984428D01*
X152123000Y-97898714D01*
X152123000Y-97641571D01*
X152080142Y-97555857D01*
X152037285Y-97513000D01*
X151951571Y-97470142D01*
X151823000Y-97470142D01*
X151737285Y-97513000D01*
X151694428Y-97555857D01*
X151651571Y-97641571D01*
X151651571Y-97898714D01*
X151694428Y-97984428D01*
X151737285Y-98027285D01*
X151823000Y-98070142D01*
X151951571Y-98070142D01*
X150880142Y-98070142D02*
X150880142Y-97170142D01*
X150880142Y-98027285D02*
X150965857Y-98070142D01*
X151137285Y-98070142D01*
X151223000Y-98027285D01*
X151265857Y-97984428D01*
X151308714Y-97898714D01*
X151308714Y-97641571D01*
X151265857Y-97555857D01*
X151223000Y-97513000D01*
X151137285Y-97470142D01*
X150965857Y-97470142D01*
X150880142Y-97513000D01*
X133769714Y-97686000D02*
X133341142Y-97686000D01*
X133855428Y-97943142D02*
X133555428Y-97043142D01*
X133255428Y-97943142D01*
X132955428Y-97343142D02*
X132955428Y-97943142D01*
X132955428Y-97428857D02*
X132912571Y-97386000D01*
X132826857Y-97343142D01*
X132698285Y-97343142D01*
X132612571Y-97386000D01*
X132569714Y-97471714D01*
X132569714Y-97943142D01*
X132012571Y-97943142D02*
X132098285Y-97900285D01*
X132141142Y-97857428D01*
X132184000Y-97771714D01*
X132184000Y-97514571D01*
X132141142Y-97428857D01*
X132098285Y-97386000D01*
X132012571Y-97343142D01*
X131884000Y-97343142D01*
X131798285Y-97386000D01*
X131755428Y-97428857D01*
X131712571Y-97514571D01*
X131712571Y-97771714D01*
X131755428Y-97857428D01*
X131798285Y-97900285D01*
X131884000Y-97943142D01*
X132012571Y-97943142D01*
X130941142Y-97943142D02*
X130941142Y-97043142D01*
X130941142Y-97900285D02*
X131026857Y-97943142D01*
X131198285Y-97943142D01*
X131284000Y-97900285D01*
X131326857Y-97857428D01*
X131369714Y-97771714D01*
X131369714Y-97514571D01*
X131326857Y-97428857D01*
X131284000Y-97386000D01*
X131198285Y-97343142D01*
X131026857Y-97343142D01*
X130941142Y-97386000D01*
X113830714Y-97813000D02*
X113402142Y-97813000D01*
X113916428Y-98070142D02*
X113616428Y-97170142D01*
X113316428Y-98070142D01*
X113016428Y-97470142D02*
X113016428Y-98070142D01*
X113016428Y-97555857D02*
X112973571Y-97513000D01*
X112887857Y-97470142D01*
X112759285Y-97470142D01*
X112673571Y-97513000D01*
X112630714Y-97598714D01*
X112630714Y-98070142D01*
X112073571Y-98070142D02*
X112159285Y-98027285D01*
X112202142Y-97984428D01*
X112245000Y-97898714D01*
X112245000Y-97641571D01*
X112202142Y-97555857D01*
X112159285Y-97513000D01*
X112073571Y-97470142D01*
X111945000Y-97470142D01*
X111859285Y-97513000D01*
X111816428Y-97555857D01*
X111773571Y-97641571D01*
X111773571Y-97898714D01*
X111816428Y-97984428D01*
X111859285Y-98027285D01*
X111945000Y-98070142D01*
X112073571Y-98070142D01*
X111002142Y-98070142D02*
X111002142Y-97170142D01*
X111002142Y-98027285D02*
X111087857Y-98070142D01*
X111259285Y-98070142D01*
X111345000Y-98027285D01*
X111387857Y-97984428D01*
X111430714Y-97898714D01*
X111430714Y-97641571D01*
X111387857Y-97555857D01*
X111345000Y-97513000D01*
X111259285Y-97470142D01*
X111087857Y-97470142D01*
X111002142Y-97513000D01*
X121061857Y-97984428D02*
X121104714Y-98027285D01*
X121233285Y-98070142D01*
X121319000Y-98070142D01*
X121447571Y-98027285D01*
X121533285Y-97941571D01*
X121576142Y-97855857D01*
X121619000Y-97684428D01*
X121619000Y-97555857D01*
X121576142Y-97384428D01*
X121533285Y-97298714D01*
X121447571Y-97213000D01*
X121319000Y-97170142D01*
X121233285Y-97170142D01*
X121104714Y-97213000D01*
X121061857Y-97255857D01*
X120290428Y-98070142D02*
X120290428Y-97598714D01*
X120333285Y-97513000D01*
X120419000Y-97470142D01*
X120590428Y-97470142D01*
X120676142Y-97513000D01*
X120290428Y-98027285D02*
X120376142Y-98070142D01*
X120590428Y-98070142D01*
X120676142Y-98027285D01*
X120719000Y-97941571D01*
X120719000Y-97855857D01*
X120676142Y-97770142D01*
X120590428Y-97727285D01*
X120376142Y-97727285D01*
X120290428Y-97684428D01*
X119990428Y-97470142D02*
X119647571Y-97470142D01*
X119861857Y-97170142D02*
X119861857Y-97941571D01*
X119819000Y-98027285D01*
X119733285Y-98070142D01*
X119647571Y-98070142D01*
X119347571Y-98070142D02*
X119347571Y-97170142D01*
X118961857Y-98070142D02*
X118961857Y-97598714D01*
X119004714Y-97513000D01*
X119090428Y-97470142D01*
X119219000Y-97470142D01*
X119304714Y-97513000D01*
X119347571Y-97555857D01*
X141000857Y-97984428D02*
X141043714Y-98027285D01*
X141172285Y-98070142D01*
X141258000Y-98070142D01*
X141386571Y-98027285D01*
X141472285Y-97941571D01*
X141515142Y-97855857D01*
X141558000Y-97684428D01*
X141558000Y-97555857D01*
X141515142Y-97384428D01*
X141472285Y-97298714D01*
X141386571Y-97213000D01*
X141258000Y-97170142D01*
X141172285Y-97170142D01*
X141043714Y-97213000D01*
X141000857Y-97255857D01*
X140229428Y-98070142D02*
X140229428Y-97598714D01*
X140272285Y-97513000D01*
X140358000Y-97470142D01*
X140529428Y-97470142D01*
X140615142Y-97513000D01*
X140229428Y-98027285D02*
X140315142Y-98070142D01*
X140529428Y-98070142D01*
X140615142Y-98027285D01*
X140658000Y-97941571D01*
X140658000Y-97855857D01*
X140615142Y-97770142D01*
X140529428Y-97727285D01*
X140315142Y-97727285D01*
X140229428Y-97684428D01*
X139929428Y-97470142D02*
X139586571Y-97470142D01*
X139800857Y-97170142D02*
X139800857Y-97941571D01*
X139758000Y-98027285D01*
X139672285Y-98070142D01*
X139586571Y-98070142D01*
X139286571Y-98070142D02*
X139286571Y-97170142D01*
X138900857Y-98070142D02*
X138900857Y-97598714D01*
X138943714Y-97513000D01*
X139029428Y-97470142D01*
X139158000Y-97470142D01*
X139243714Y-97513000D01*
X139286571Y-97555857D01*
X160939857Y-97984428D02*
X160982714Y-98027285D01*
X161111285Y-98070142D01*
X161197000Y-98070142D01*
X161325571Y-98027285D01*
X161411285Y-97941571D01*
X161454142Y-97855857D01*
X161497000Y-97684428D01*
X161497000Y-97555857D01*
X161454142Y-97384428D01*
X161411285Y-97298714D01*
X161325571Y-97213000D01*
X161197000Y-97170142D01*
X161111285Y-97170142D01*
X160982714Y-97213000D01*
X160939857Y-97255857D01*
X160168428Y-98070142D02*
X160168428Y-97598714D01*
X160211285Y-97513000D01*
X160297000Y-97470142D01*
X160468428Y-97470142D01*
X160554142Y-97513000D01*
X160168428Y-98027285D02*
X160254142Y-98070142D01*
X160468428Y-98070142D01*
X160554142Y-98027285D01*
X160597000Y-97941571D01*
X160597000Y-97855857D01*
X160554142Y-97770142D01*
X160468428Y-97727285D01*
X160254142Y-97727285D01*
X160168428Y-97684428D01*
X159868428Y-97470142D02*
X159525571Y-97470142D01*
X159739857Y-97170142D02*
X159739857Y-97941571D01*
X159697000Y-98027285D01*
X159611285Y-98070142D01*
X159525571Y-98070142D01*
X159225571Y-98070142D02*
X159225571Y-97170142D01*
X158839857Y-98070142D02*
X158839857Y-97598714D01*
X158882714Y-97513000D01*
X158968428Y-97470142D01*
X159097000Y-97470142D01*
X159182714Y-97513000D01*
X159225571Y-97555857D01*
D11*
X128147476Y-93391095D02*
X128147476Y-92091095D01*
X127714142Y-93019666D01*
X127280809Y-92091095D01*
X127280809Y-93391095D01*
X126599857Y-93391095D02*
X126352238Y-93391095D01*
X126228428Y-93329190D01*
X126166523Y-93267285D01*
X126042714Y-93081571D01*
X125980809Y-92833952D01*
X125980809Y-92338714D01*
X126042714Y-92214904D01*
X126104619Y-92153000D01*
X126228428Y-92091095D01*
X126476047Y-92091095D01*
X126599857Y-92153000D01*
X126661761Y-92214904D01*
X126723666Y-92338714D01*
X126723666Y-92648238D01*
X126661761Y-92772047D01*
X126599857Y-92833952D01*
X126476047Y-92895857D01*
X126228428Y-92895857D01*
X126104619Y-92833952D01*
X126042714Y-92772047D01*
X125980809Y-92648238D01*
X124742714Y-93391095D02*
X125485571Y-93391095D01*
X125114142Y-93391095D02*
X125114142Y-92091095D01*
X125237952Y-92276809D01*
X125361761Y-92400619D01*
X125485571Y-92462523D01*
X124247476Y-92214904D02*
X124185571Y-92153000D01*
X124061761Y-92091095D01*
X123752238Y-92091095D01*
X123628428Y-92153000D01*
X123566523Y-92214904D01*
X123504619Y-92338714D01*
X123504619Y-92462523D01*
X123566523Y-92648238D01*
X124309380Y-93391095D01*
X123504619Y-93391095D01*
X131490333Y-95491095D02*
X131490333Y-94191095D01*
X131490333Y-94810142D02*
X130747476Y-94810142D01*
X130747476Y-95491095D02*
X130747476Y-94191095D01*
X129880809Y-94191095D02*
X129633190Y-94191095D01*
X129509380Y-94253000D01*
X129385571Y-94376809D01*
X129323666Y-94624428D01*
X129323666Y-95057761D01*
X129385571Y-95305380D01*
X129509380Y-95429190D01*
X129633190Y-95491095D01*
X129880809Y-95491095D01*
X130004619Y-95429190D01*
X130128428Y-95305380D01*
X130190333Y-95057761D01*
X130190333Y-94624428D01*
X130128428Y-94376809D01*
X130004619Y-94253000D01*
X129880809Y-94191095D01*
X128147476Y-95491095D02*
X128766523Y-95491095D01*
X128766523Y-94191095D01*
X127095095Y-95491095D02*
X127714142Y-95491095D01*
X127714142Y-94191095D01*
X126414142Y-94872047D02*
X126414142Y-95491095D01*
X126847476Y-94191095D02*
X126414142Y-94872047D01*
X125980809Y-94191095D01*
X124618904Y-94314904D02*
X124557000Y-94253000D01*
X124433190Y-94191095D01*
X124123666Y-94191095D01*
X123999857Y-94253000D01*
X123937952Y-94314904D01*
X123876047Y-94438714D01*
X123876047Y-94562523D01*
X123937952Y-94748238D01*
X124680809Y-95491095D01*
X123876047Y-95491095D01*
X123071285Y-94191095D02*
X122947476Y-94191095D01*
X122823666Y-94253000D01*
X122761761Y-94314904D01*
X122699857Y-94438714D01*
X122637952Y-94686333D01*
X122637952Y-94995857D01*
X122699857Y-95243476D01*
X122761761Y-95367285D01*
X122823666Y-95429190D01*
X122947476Y-95491095D01*
X123071285Y-95491095D01*
X123195095Y-95429190D01*
X123257000Y-95367285D01*
X123318904Y-95243476D01*
X123380809Y-94995857D01*
X123380809Y-94686333D01*
X123318904Y-94438714D01*
X123257000Y-94314904D01*
X123195095Y-94253000D01*
X123071285Y-94191095D01*
X122142714Y-94314904D02*
X122080809Y-94253000D01*
X121957000Y-94191095D01*
X121647476Y-94191095D01*
X121523666Y-94253000D01*
X121461761Y-94314904D01*
X121399857Y-94438714D01*
X121399857Y-94562523D01*
X121461761Y-94748238D01*
X122204619Y-95491095D01*
X121399857Y-95491095D01*
X120161761Y-95491095D02*
X120904619Y-95491095D01*
X120533190Y-95491095D02*
X120533190Y-94191095D01*
X120657000Y-94376809D01*
X120780809Y-94500619D01*
X120904619Y-94562523D01*
D12*
%TO.C,D3*%
X117865000Y-98685000D02*
X117865000Y-98841000D01*
X117865000Y-96369000D02*
X117865000Y-96525000D01*
X115263870Y-98684837D02*
G75*
G03*
X117345961Y-98685000I1041130J1079837D01*
G01*
X115263870Y-96525163D02*
G75*
G02*
X117345961Y-96525000I1041130J-1079837D01*
G01*
X114632665Y-98683608D02*
G75*
G03*
X117865000Y-98840516I1672335J1078608D01*
G01*
X114632665Y-96526392D02*
G75*
G02*
X117865000Y-96369484I1672335J-1078608D01*
G01*
%TO.C,D2*%
X137865000Y-98685000D02*
X137865000Y-98841000D01*
X137865000Y-96369000D02*
X137865000Y-96525000D01*
X135263870Y-98684837D02*
G75*
G03*
X137345961Y-98685000I1041130J1079837D01*
G01*
X135263870Y-96525163D02*
G75*
G02*
X137345961Y-96525000I1041130J-1079837D01*
G01*
X134632665Y-98683608D02*
G75*
G03*
X137865000Y-98840516I1672335J1078608D01*
G01*
X134632665Y-96526392D02*
G75*
G02*
X137865000Y-96369484I1672335J-1078608D01*
G01*
%TO.C,D1*%
X157865000Y-98685000D02*
X157865000Y-98841000D01*
X157865000Y-96369000D02*
X157865000Y-96525000D01*
X155263870Y-98684837D02*
G75*
G03*
X157345961Y-98685000I1041130J1079837D01*
G01*
X155263870Y-96525163D02*
G75*
G02*
X157345961Y-96525000I1041130J-1079837D01*
G01*
X154632665Y-98683608D02*
G75*
G03*
X157865000Y-98840516I1672335J1078608D01*
G01*
X154632665Y-96526392D02*
G75*
G02*
X157865000Y-96369484I1672335J-1078608D01*
G01*
%TO.C,D3*%
D11*
X117043095Y-95097380D02*
X117043095Y-94097380D01*
X116805000Y-94097380D01*
X116662142Y-94145000D01*
X116566904Y-94240238D01*
X116519285Y-94335476D01*
X116471666Y-94525952D01*
X116471666Y-94668809D01*
X116519285Y-94859285D01*
X116566904Y-94954523D01*
X116662142Y-95049761D01*
X116805000Y-95097380D01*
X117043095Y-95097380D01*
X116138333Y-94097380D02*
X115519285Y-94097380D01*
X115852619Y-94478333D01*
X115709761Y-94478333D01*
X115614523Y-94525952D01*
X115566904Y-94573571D01*
X115519285Y-94668809D01*
X115519285Y-94906904D01*
X115566904Y-95002142D01*
X115614523Y-95049761D01*
X115709761Y-95097380D01*
X115995476Y-95097380D01*
X116090714Y-95049761D01*
X116138333Y-95002142D01*
X116947857Y-101017380D02*
X117424047Y-101017380D01*
X117424047Y-100017380D01*
X116614523Y-100493571D02*
X116281190Y-100493571D01*
X116138333Y-101017380D02*
X116614523Y-101017380D01*
X116614523Y-100017380D01*
X116138333Y-100017380D01*
X115709761Y-101017380D02*
X115709761Y-100017380D01*
X115471666Y-100017380D01*
X115328809Y-100065000D01*
X115233571Y-100160238D01*
X115185952Y-100255476D01*
X115138333Y-100445952D01*
X115138333Y-100588809D01*
X115185952Y-100779285D01*
X115233571Y-100874523D01*
X115328809Y-100969761D01*
X115471666Y-101017380D01*
X115709761Y-101017380D01*
%TO.C,D2*%
X137043095Y-95097380D02*
X137043095Y-94097380D01*
X136805000Y-94097380D01*
X136662142Y-94145000D01*
X136566904Y-94240238D01*
X136519285Y-94335476D01*
X136471666Y-94525952D01*
X136471666Y-94668809D01*
X136519285Y-94859285D01*
X136566904Y-94954523D01*
X136662142Y-95049761D01*
X136805000Y-95097380D01*
X137043095Y-95097380D01*
X136090714Y-94192619D02*
X136043095Y-94145000D01*
X135947857Y-94097380D01*
X135709761Y-94097380D01*
X135614523Y-94145000D01*
X135566904Y-94192619D01*
X135519285Y-94287857D01*
X135519285Y-94383095D01*
X135566904Y-94525952D01*
X136138333Y-95097380D01*
X135519285Y-95097380D01*
X136947857Y-101017380D02*
X137424047Y-101017380D01*
X137424047Y-100017380D01*
X136614523Y-100493571D02*
X136281190Y-100493571D01*
X136138333Y-101017380D02*
X136614523Y-101017380D01*
X136614523Y-100017380D01*
X136138333Y-100017380D01*
X135709761Y-101017380D02*
X135709761Y-100017380D01*
X135471666Y-100017380D01*
X135328809Y-100065000D01*
X135233571Y-100160238D01*
X135185952Y-100255476D01*
X135138333Y-100445952D01*
X135138333Y-100588809D01*
X135185952Y-100779285D01*
X135233571Y-100874523D01*
X135328809Y-100969761D01*
X135471666Y-101017380D01*
X135709761Y-101017380D01*
%TO.C,D1*%
X157043095Y-95097380D02*
X157043095Y-94097380D01*
X156805000Y-94097380D01*
X156662142Y-94145000D01*
X156566904Y-94240238D01*
X156519285Y-94335476D01*
X156471666Y-94525952D01*
X156471666Y-94668809D01*
X156519285Y-94859285D01*
X156566904Y-94954523D01*
X156662142Y-95049761D01*
X156805000Y-95097380D01*
X157043095Y-95097380D01*
X155519285Y-95097380D02*
X156090714Y-95097380D01*
X155805000Y-95097380D02*
X155805000Y-94097380D01*
X155900238Y-94240238D01*
X155995476Y-94335476D01*
X156090714Y-94383095D01*
X156947857Y-101017380D02*
X157424047Y-101017380D01*
X157424047Y-100017380D01*
X156614523Y-100493571D02*
X156281190Y-100493571D01*
X156138333Y-101017380D02*
X156614523Y-101017380D01*
X156614523Y-100017380D01*
X156138333Y-100017380D01*
X155709761Y-101017380D02*
X155709761Y-100017380D01*
X155471666Y-100017380D01*
X155328809Y-100065000D01*
X155233571Y-100160238D01*
X155185952Y-100255476D01*
X155138333Y-100445952D01*
X155138333Y-100588809D01*
X155185952Y-100779285D01*
X155233571Y-100874523D01*
X155328809Y-100969761D01*
X155471666Y-101017380D01*
X155709761Y-101017380D01*
%TD*%
M02*
