%TF.GenerationSoftware,KiCad,Pcbnew,5.1.6-c6e7f7d~87~ubuntu18.04.1*%
%TF.CreationDate,2021-03-30T11:16:12+09:00*%
%TF.ProjectId,M912,4d393132-2e6b-4696-9361-645f70636258,rev?*%
%TF.SameCoordinates,Original*%
%TF.FileFunction,Copper,L2,Bot*%
%TF.FilePolarity,Positive*%
%FSLAX46Y46*%
G04 Gerber Fmt 4.6, Leading zero omitted, Abs format (unit mm)*
G04 Created by KiCad (PCBNEW 5.1.6-c6e7f7d~87~ubuntu18.04.1) date 2021-03-30 11:16:12*
%MOMM*%
%LPD*%
G01*
G04 APERTURE LIST*
%TA.AperFunction,ComponentPad*%
%ADD10O,1.600000X1.600000*%
%TD*%
%TA.AperFunction,ComponentPad*%
%ADD11C,1.600000*%
%TD*%
%TA.AperFunction,ComponentPad*%
%ADD12O,1.950000X1.700000*%
%TD*%
%TA.AperFunction,ComponentPad*%
%ADD13C,1.800000*%
%TD*%
%TA.AperFunction,ComponentPad*%
%ADD14R,1.800000X1.800000*%
%TD*%
%TA.AperFunction,Conductor*%
%ADD15C,1.000000*%
%TD*%
G04 APERTURE END LIST*
D10*
%TO.P,R3,2*%
%TO.N,Net-(D3-Pad2)*%
X122174000Y-101346000D03*
D11*
%TO.P,R3,1*%
%TO.N,Net-(J1-Pad4)*%
X129794000Y-101346000D03*
%TD*%
D10*
%TO.P,R2,2*%
%TO.N,Net-(D2-Pad2)*%
X143510000Y-93726000D03*
D11*
%TO.P,R2,1*%
%TO.N,Net-(J1-Pad4)*%
X143510000Y-101346000D03*
%TD*%
D10*
%TO.P,R1,2*%
%TO.N,Net-(D1-Pad2)*%
X148336000Y-93726000D03*
D11*
%TO.P,R1,1*%
%TO.N,Net-(J1-Pad4)*%
X148336000Y-101346000D03*
%TD*%
D12*
%TO.P,J1,4*%
%TO.N,Net-(J1-Pad4)*%
X165481000Y-101480000D03*
%TO.P,J1,3*%
%TO.N,Net-(D3-Pad1)*%
X165481000Y-98980000D03*
%TO.P,J1,2*%
%TO.N,Net-(D2-Pad1)*%
X165481000Y-96480000D03*
%TO.P,J1,1*%
%TO.N,Net-(D1-Pad1)*%
%TA.AperFunction,ComponentPad*%
G36*
G01*
X164756000Y-93130000D02*
X166206000Y-93130000D01*
G75*
G02*
X166456000Y-93380000I0J-250000D01*
G01*
X166456000Y-94580000D01*
G75*
G02*
X166206000Y-94830000I-250000J0D01*
G01*
X164756000Y-94830000D01*
G75*
G02*
X164506000Y-94580000I0J250000D01*
G01*
X164506000Y-93380000D01*
G75*
G02*
X164756000Y-93130000I250000J0D01*
G01*
G37*
%TD.AperFunction*%
%TD*%
D13*
%TO.P,D3,2*%
%TO.N,Net-(D3-Pad2)*%
X115035000Y-97605000D03*
D14*
%TO.P,D3,1*%
%TO.N,Net-(D3-Pad1)*%
X117575000Y-97605000D03*
%TD*%
D13*
%TO.P,D2,2*%
%TO.N,Net-(D2-Pad2)*%
X135035000Y-97605000D03*
D14*
%TO.P,D2,1*%
%TO.N,Net-(D2-Pad1)*%
X137575000Y-97605000D03*
%TD*%
D13*
%TO.P,D1,2*%
%TO.N,Net-(D1-Pad2)*%
X155035000Y-97605000D03*
D14*
%TO.P,D1,1*%
%TO.N,Net-(D1-Pad1)*%
X157575000Y-97605000D03*
%TD*%
D15*
%TO.N,Net-(D2-Pad1)*%
X137575000Y-97605000D02*
X137575000Y-91787000D01*
X137575000Y-91787000D02*
X138430000Y-90932000D01*
X138430000Y-90932000D02*
X159893000Y-90932000D01*
X159893000Y-90932000D02*
X160655000Y-91694000D01*
X160655000Y-91694000D02*
X160655000Y-96012000D01*
X161123000Y-96480000D02*
X165481000Y-96480000D01*
X160655000Y-96012000D02*
X161123000Y-96480000D01*
%TO.N,Net-(D3-Pad1)*%
X117575000Y-97605000D02*
X117575000Y-103097000D01*
X117575000Y-103097000D02*
X118832990Y-104354990D01*
X118832990Y-104354990D02*
X158027010Y-104354990D01*
X158027010Y-104354990D02*
X160528000Y-101854000D01*
X160528000Y-101854000D02*
X160528000Y-99441000D01*
X160989000Y-98980000D02*
X165481000Y-98980000D01*
X160528000Y-99441000D02*
X160989000Y-98980000D01*
%TD*%
M02*
